<svg width="56" height="56" viewBox="0 0 56 56" fill="none" xmlns="http://www.w3.org/2000/svg">
<rect width="56" height="56" rx="28" fill="#00807F" fill-opacity="0.3"/>
<g clip-path="url(#clip0_442_369)">
<path d="M37.9998 25V24C37.9998 22.142 36.7198 20.589 34.9998 20.142V16H28.9998V18.812C30.2228 19.522 31.1698 20.65 31.6498 22H33.9998C35.1028 22 35.9998 22.897 35.9998 24V25H29.9998V24C29.9998 22.142 28.7198 20.589 26.9998 20.142V16H20.9998V20.142C19.2798 20.589 17.9998 22.142 17.9998 24V25H15.9668L17.8828 37.456C18.1098 38.93 19.3568 40 20.8478 40H35.1508C36.6418 40 37.8888 38.93 38.1158 37.456L40.0318 25H37.9998ZM32.9998 20H30.9998V18H32.9998V20ZM24.9998 18V20H22.9998V18H24.9998ZM19.9998 24C19.9998 22.897 20.8968 22 21.9998 22H25.9998C27.1028 22 27.9998 22.897 27.9998 24V25H19.9998V24ZM36.1398 37.151C36.0638 37.643 35.6478 38 35.1508 38H20.8488C20.3518 38 19.9358 37.644 19.8598 37.151L18.2978 27H37.7018L36.1398 37.151ZM28.9998 36H26.9998V29H28.9998V36ZM33.9998 36H31.9998V29H33.9998V36ZM23.9998 36H21.9998V29H23.9998V36Z" fill="#00807F"/>
</g>
<defs>
<clipPath id="clip0_442_369">
<rect width="24" height="24" fill="white" transform="translate(16 16)"/>
</clipPath>
</defs>
</svg>
