<svg width="56" height="56" viewBox="0 0 56 56" fill="none" xmlns="http://www.w3.org/2000/svg">
<rect width="56" height="56" rx="28" fill="#00807F" fill-opacity="0.2"/>
<g clip-path="url(#clip0_198_183)">
<path d="M40.0002 39.0001C40.0002 39.2653 39.8948 39.5196 39.7073 39.7072C39.5197 39.8947 39.2654 40.0001 39.0001 40.0001H17.0001C16.7349 40.0001 16.4806 39.8947 16.293 39.7072C16.1055 39.5196 16.0001 39.2653 16.0001 39.0001C16.0001 38.7348 16.1055 38.4805 16.293 38.2929C16.4806 38.1054 16.7349 38.0001 17.0001 38.0001H39.0001C39.2654 38.0001 39.5197 38.1054 39.7073 38.2929C39.8948 38.4805 40.0002 38.7348 40.0002 39.0001ZM16.2911 24.5521C16.0757 24.1524 15.9758 23.7006 16.0029 23.2473C16.0299 22.794 16.1827 22.3573 16.4441 21.9861C16.8714 21.3592 17.4436 20.8446 18.1121 20.4861L25.6131 16.5821C26.3504 16.1987 27.1692 15.9985 28.0001 15.9985C28.8311 15.9985 29.6499 16.1987 30.3871 16.5821L37.8871 20.4891C38.5557 20.8476 39.1279 21.3622 39.5551 21.9891C39.8166 22.3603 39.9694 22.797 39.9964 23.2503C40.0235 23.7036 39.9236 24.1554 39.7081 24.5551C39.4762 24.9939 39.1282 25.3607 38.7022 25.6154C38.2762 25.8702 37.7885 26.0033 37.2921 26.0001H37.0001V34.0001H38.0001C38.2654 34.0001 38.5197 34.1054 38.7073 34.2929C38.8948 34.4805 39.0001 34.7348 39.0001 35.0001C39.0001 35.2653 38.8948 35.5196 38.7073 35.7072C38.5197 35.8947 38.2654 36.0001 38.0001 36.0001H18.0001C17.7349 36.0001 17.4806 35.8947 17.293 35.7072C17.1055 35.5196 17.0001 35.2653 17.0001 35.0001C17.0001 34.7348 17.1055 34.4805 17.293 34.2929C17.4806 34.1054 17.7349 34.0001 18.0001 34.0001H19.0001V26.0001H18.7081C18.2113 26.0032 17.7232 25.8698 17.2969 25.6144C16.8707 25.3591 16.5228 24.9916 16.2911 24.5521ZM21.0001 34.0001H24.0001V26.0001H21.0001V34.0001ZM26.0001 26.0001V34.0001H30.0001V26.0001H26.0001ZM35.0001 26.0001H32.0001V34.0001H35.0001V26.0001ZM18.0631 23.6251C18.1259 23.7407 18.2193 23.8369 18.333 23.9031C18.4468 23.9692 18.5766 24.0028 18.7081 24.0001H37.2921C37.4237 24.0028 37.5535 23.9692 37.6673 23.9031C37.781 23.8369 37.8744 23.7407 37.9371 23.6251C37.9829 23.5486 38.005 23.4604 38.0007 23.3714C37.9964 23.2825 37.966 23.1968 37.9131 23.1251C37.6709 22.765 37.3453 22.4686 36.9641 22.2611L29.4641 18.3541C29.0122 18.1195 28.5104 17.997 28.0011 17.997C27.4919 17.997 26.9901 18.1195 26.5381 18.3541L19.0381 22.2611C18.6571 22.4693 18.3317 22.7659 18.0891 23.1261C18.0362 23.1975 18.0055 23.2829 18.0009 23.3716C17.9963 23.4604 18.0179 23.5485 18.0631 23.6251Z" fill="#00807F"/>
</g>
<defs>
<clipPath id="clip0_198_183">
<rect width="24" height="24" fill="white" transform="translate(16 16)"/>
</clipPath>
</defs>
</svg>
