<svg width="56" height="56" viewBox="0 0 56 56" fill="none" xmlns="http://www.w3.org/2000/svg">
<rect width="56" height="56" rx="28" fill="#00807F" fill-opacity="0.3"/>
<g clip-path="url(#clip0_442_372)">
<path d="M27 33H26.9C26.7727 32.3731 26.5251 31.7768 26.171 31.244L26.244 31.171C26.4262 30.9824 26.527 30.7298 26.5247 30.4676C26.5224 30.2054 26.4172 29.9546 26.2318 29.7692C26.0464 29.5838 25.7956 29.4786 25.5334 29.4764C25.2712 29.4741 25.0186 29.5749 24.83 29.757L24.757 29.83C24.224 29.4754 23.6273 29.2275 23 29.1V29C23 28.7348 22.8946 28.4805 22.7071 28.2929C22.5196 28.1054 22.2652 28 22 28C21.7348 28 21.4804 28.1054 21.2929 28.2929C21.1054 28.4805 21 28.7348 21 29V29.1C20.3731 29.2273 19.7768 29.4749 19.244 29.829L19.171 29.756C18.9824 29.5739 18.7298 29.4731 18.4676 29.4754C18.2054 29.4776 17.9546 29.5828 17.7692 29.7682C17.5838 29.9536 17.4786 30.2044 17.4763 30.4666C17.474 30.7288 17.5748 30.9814 17.757 31.17L17.83 31.243C17.4754 31.776 17.2275 32.3727 17.1 33H17C16.7348 33 16.4804 33.1054 16.2929 33.2929C16.1054 33.4805 16 33.7348 16 34C16 34.2652 16.1054 34.5196 16.2929 34.7071C16.4804 34.8947 16.7348 35 17 35H17.1C17.2273 35.627 17.4749 36.2233 17.829 36.756L17.756 36.829C17.5738 37.0176 17.473 37.2702 17.4753 37.5324C17.4776 37.7946 17.5828 38.0454 17.7682 38.2308C17.9536 38.4163 18.2044 38.5214 18.4666 38.5237C18.7288 38.526 18.9814 38.4252 19.17 38.243L19.243 38.17C19.776 38.5246 20.3727 38.7726 21 38.9V39C21 39.2652 21.1054 39.5196 21.2929 39.7071C21.4804 39.8947 21.7348 40 22 40C22.2652 40 22.5196 39.8947 22.7071 39.7071C22.8946 39.5196 23 39.2652 23 39V38.9C23.6269 38.7727 24.2232 38.5252 24.756 38.171L24.829 38.244C25.0176 38.4262 25.2702 38.527 25.5324 38.5247C25.7946 38.5224 26.0454 38.4173 26.2308 38.2318C26.4162 38.0464 26.5214 37.7956 26.5237 37.5334C26.526 37.2712 26.4252 37.0186 26.243 36.83L26.17 36.757C26.5246 36.2241 26.7725 35.6274 26.9 35H27C27.2652 35 27.5196 34.8947 27.7071 34.7071C27.8946 34.5196 28 34.2652 28 34C28 33.7348 27.8946 33.4805 27.7071 33.2929C27.5196 33.1054 27.2652 33 27 33ZM22 37C21.2044 37 20.4413 36.684 19.8787 36.1213C19.3161 35.5587 19 34.7957 19 34C19 33.2044 19.3161 32.4413 19.8787 31.8787C20.4413 31.3161 21.2044 31 22 31C22.7956 31 23.5587 31.3161 24.1213 31.8787C24.6839 32.4413 25 33.2044 25 34C25 34.7957 24.6839 35.5587 24.1213 36.1213C23.5587 36.684 22.7956 37 22 37ZM40 28C40 26.9392 39.5786 25.9217 38.8284 25.1716C38.0783 24.4215 37.0609 24 36 24V22C36 21.7348 35.8946 21.4805 35.7071 21.2929C35.5196 21.1054 35.2652 21 35 21C34.7348 21 34.4804 21.1054 34.2929 21.2929C34.1054 21.4805 34 21.7348 34 22V24H31.554L28.023 18.35C27.5756 17.629 26.9511 17.0345 26.2089 16.6231C25.4667 16.2118 24.6316 15.9973 23.783 16H22C21.2044 16 20.4413 16.3161 19.8787 16.8787C19.3161 17.4413 19 18.2044 19 19V24C18.2044 24 17.4413 24.3161 16.8787 24.8787C16.3161 25.4413 16 26.2044 16 27C16 27.2652 16.1054 27.5196 16.2929 27.7071C16.4804 27.8947 16.7348 28 17 28C17.2652 28 17.5196 27.8947 17.7071 27.7071C17.8946 27.5196 18 27.2652 18 27C18 26.7348 18.1054 26.4805 18.2929 26.2929C18.4804 26.1054 18.7348 26 19 26H36C36.3696 26.0044 36.7309 26.1105 37.0441 26.3066C37.3574 26.5028 37.6106 26.7815 37.7759 27.1121C37.9412 27.4427 38.0122 27.8124 37.9812 28.1808C37.9502 28.5491 37.8183 28.9017 37.6 29.2L36.045 31.273C29.316 29.273 27.486 39.573 34.5 40C35.3795 39.9894 36.2369 39.7225 36.967 39.232C37.6972 38.7416 38.2684 38.0488 38.6108 37.2386C38.9532 36.4283 39.0519 35.5359 38.8947 34.6704C38.7375 33.805 38.3314 33.0041 37.726 32.366L39.2 30.4C39.7179 29.7069 39.9984 28.8653 40 28ZM21 19C21 18.7348 21.1054 18.4805 21.2929 18.2929C21.4804 18.1054 21.7348 18 22 18H23.783C24.2921 17.9984 24.7932 18.1271 25.2385 18.374C25.6838 18.6208 26.0585 18.9774 26.327 19.41L29.2 24H21V19ZM34.5 38C33.837 38 33.2011 37.7366 32.7322 37.2678C32.2634 36.799 32 36.1631 32 35.5C32 34.837 32.2634 34.2011 32.7322 33.7323C33.2011 33.2634 33.837 33 34.5 33C35.163 33 35.7989 33.2634 36.2678 33.7323C36.7366 34.2011 37 34.837 37 35.5C37 36.1631 36.7366 36.799 36.2678 37.2678C35.7989 37.7366 35.163 38 34.5 38Z" fill="#00807F"/>
</g>
<defs>
<clipPath id="clip0_442_372">
<rect width="24" height="24" fill="white" transform="translate(16 16)"/>
</clipPath>
</defs>
</svg>
