<svg width="56" height="56" viewBox="0 0 56 56" fill="none" xmlns="http://www.w3.org/2000/svg">
<rect width="56" height="56" rx="28" fill="#00807F" fill-opacity="0.3"/>
<g clip-path="url(#clip0_198_218)">
<path d="M30.849 28.747L25.401 24.482C24.577 23.837 23.424 23.836 22.6 24.482L17.151 28.746C16.42 29.319 16 30.181 16 31.109V40H32V31.109C32 30.18 31.58 29.319 30.849 28.747ZM30 38H18V31.109C18 30.799 18.14 30.512 18.384 30.321L23.832 26.058C23.93 25.98 24.068 25.981 24.168 26.058L29.616 30.323C29.86 30.513 30 30.801 30 31.11V38ZM22 31H26V35H22V31ZM34 29H36V31H34V29ZM34 33H36V35H34V33ZM30 21H32V23H30V21ZM36 23H34V21H36V23ZM30 25H32V27H30V25ZM34 25H36V27H34V25ZM40 19V40H34V38H38V19C38 18.448 37.552 18 37 18H29C28.448 18 28 18.448 28 19V23.978L26 22.413V19C26 18.983 26 18.965 26.001 18.948C26.029 17.318 27.363 16 29 16H37C38.654 16 40 17.346 40 19Z" fill="#00807F"/>
</g>
<defs>
<clipPath id="clip0_198_218">
<rect width="24" height="24" fill="white" transform="translate(16 16)"/>
</clipPath>
</defs>
</svg>
