<svg width="225" height="61" viewBox="0 0 225 61" fill="none" xmlns="http://www.w3.org/2000/svg">
<g clip-path="url(#clip0_290_438)">
<path d="M51.3663 39.186C50.8919 38.2372 50.3312 36.9002 49.9431 35.2614C49.9431 35.2614 49.7274 34.3557 49.6412 33.3637C49.1236 27.9727 51.8407 18.0532 48.2179 13.8266C46.1909 11.4977 42.7838 11.1096 38.1691 11.1096C33.9425 11.1096 31.6136 11.1096 29.3278 12.7484C25.7481 15.293 25.1443 19.6058 25.0149 20.6409H33.1231C33.1231 20.6409 33.5543 16.8456 37.5653 16.7594C38.9454 16.63 40.2823 17.1475 40.9724 18.1826C41.4468 18.9158 41.7918 20.0802 41.2743 20.9859C40.9724 21.5035 40.498 21.8054 40.2392 21.9347C37.6515 23.1855 32.8643 22.2798 29.5865 23.5736C26.9557 24.6518 24.5837 27.3689 24.3249 30.431C24.023 34.2263 27.042 36.8571 27.4301 37.2021C30.3628 39.6605 34.0287 39.2723 35.8833 39.0567C38.9022 38.7116 41.1449 37.504 42.3525 36.7277V39.186H51.3663ZM41.5331 29.1803C41.4037 30.0429 41.0587 32.113 39.3335 33.2775C38.1259 34.0538 36.8752 34.0107 36.2714 34.0107C35.4088 33.9675 34.1581 33.9675 33.2093 32.9756C33.1231 32.8893 32.0017 31.6817 32.2605 30.1722C32.433 29.1803 33.1662 28.5765 33.3387 28.404C34.6325 27.3258 36.0558 27.7571 39.0748 27.2826C40.153 27.1101 40.9724 26.8945 41.4899 26.7651C41.5762 27.3689 41.6624 28.1883 41.5331 29.1803Z" fill="#007A7C"/>
<path d="M52.875 11.929V39.0998L61.0262 39.1429C61.1125 34.2694 61.1556 29.3959 61.2419 24.5224C61.1987 23.2286 61.5869 22.366 61.8457 21.8485C63.1826 19.5196 66.676 18.4414 70.5576 19.2608V11.5408C69.9107 11.4546 68.9618 11.4115 67.9268 11.5408C66.8485 11.6702 64.5628 11.929 62.4495 13.611C61.9319 13.9991 61.285 14.6461 60.6381 15.5949V11.9721L52.875 11.929Z" fill="#007A7C"/>
<path d="M0.0431282 2.05262L0 9.77257L10.8252 9.8157V39.186H19.839L19.8821 9.8157H30.6642V2.05262H0.0431282Z" fill="#007A7C"/>
<path d="M137.579 16.4574C134.646 11.9721 130.16 10.7645 129.212 10.5489C128.22 10.3332 123.087 9.38441 118.43 12.619C113.642 15.9399 112.866 21.2878 112.65 22.8404C112.09 26.8082 113.211 29.8703 113.427 30.5604C113.815 31.6386 114.548 33.2775 115.928 34.7869C119.896 39.2291 125.675 39.2291 126.796 39.2291C128.349 39.2291 131.282 39.2291 134.215 37.2884C138.225 34.6144 139.261 30.3016 139.476 29.3097L131.756 29.1803C131.627 29.8272 131.325 30.9054 130.419 31.768C128.565 33.5362 125.287 33.3637 123.174 31.8542C120.888 30.2153 120.629 27.4983 120.586 27.0239L139.562 26.9807C139.735 25.9888 140.641 21.1153 137.579 16.4574ZM120.888 21.2447C122.095 16.6731 126.106 16.975 126.106 16.975C130.549 16.9318 131.325 21.3309 131.325 21.3309L120.888 21.2447Z" fill="#007A7C"/>
<path d="M143.832 12.0584L143.875 4.2953L151.551 4.33842L151.638 12.0153L157.201 12.0584V17.6651L152.026 17.7082L151.983 31.1642C151.983 31.3798 151.983 31.8542 152.285 32.3287C152.414 32.5012 152.543 32.6306 152.63 32.7599C154.139 32.7599 155.649 32.7599 157.115 32.7599L157.158 39.2292C154.269 39.2292 151.379 39.2723 148.489 39.2723C147.972 39.2292 147.066 39.0998 146.117 38.5823C145.686 38.3235 144.823 37.8491 144.263 36.814C143.832 36.0808 143.788 35.3476 143.745 34.9595C143.745 29.2234 143.788 23.4874 143.788 17.7513L139.476 17.7082V12.1015H143.832V12.0584Z" fill="#007A7C"/>
<path d="M169.449 10.0314L169.362 39.2723L177.557 39.2292L177.6 27.5845L186.225 27.6277L186.269 39.186L194.377 39.2292V9.90197H186.182L186.225 20.684L177.557 20.7272V9.98822L169.449 10.0314Z" fill="#007A7C"/>
<path d="M223.232 35.477C223.059 33.2775 222.93 31.1211 222.758 28.9215C222.714 28.5334 222.628 27.9727 222.369 27.412C221.895 26.3338 221.119 25.6869 220.731 25.3419C221.032 25.1694 221.421 24.8675 221.809 24.4362C224.31 21.7191 224.138 15.8968 221.421 12.8347C218.66 9.68632 213.571 9.72944 206.93 9.8157C206.671 9.8157 205.248 9.8157 202.358 9.85883C201.323 9.85883 199.641 9.90196 198.649 9.90196V39.2292H206.8L206.843 28.8784C211.932 28.1452 213.83 29.094 214.606 30.2154C215.426 31.423 214.995 32.9756 216.116 37.8922C216.245 38.4097 216.331 38.841 216.418 39.1429C219.307 39.186 222.154 39.186 225.043 39.2292C225 39.2723 223.491 37.5903 223.232 35.477ZM214.52 21.4603C214.175 21.8485 213.658 22.1073 210.768 22.1935C209.215 22.2366 207.878 22.2366 206.93 22.1935C206.886 20.4684 206.886 18.7432 206.843 16.975C207.361 16.9319 208.051 16.8456 208.913 16.8456C209.258 16.8456 209.992 16.8025 210.552 16.8456C212.191 16.8887 213.744 16.975 214.563 18.0101C215.296 18.9158 215.296 20.5546 214.52 21.4603Z" fill="#007A7C"/>
<path d="M91.9921 46.8629C89.1888 46.8629 86.903 44.5771 86.8599 41.7737H74.1802C74.1802 41.86 74.1802 41.9462 74.1802 41.9894C74.1802 51.9089 82.1158 59.9739 91.9921 60.017C92.1215 60.017 92.2509 60.017 92.4234 60.017L92.4665 46.8629C92.294 46.8629 92.1215 46.8629 91.9921 46.8629Z" fill="#007A7C"/>
<path d="M110.105 41.9462H97.1235C96.9941 44.5339 94.9671 46.6472 92.3794 46.8628V60.017C92.4657 60.017 92.5088 60.017 92.595 60.017C102.256 60.017 110.105 52.1245 110.105 42.3775C110.148 42.205 110.105 42.0756 110.105 41.9462Z" fill="#E1771C"/>
<path d="M92.595 23.9186C92.5088 23.9186 92.4657 23.9186 92.3794 23.9186V36.5983C95.0533 36.814 97.1235 39.0135 97.1235 41.7306C97.1235 41.8168 97.1235 41.9031 97.1235 41.9894H110.148C110.148 41.86 110.148 41.7306 110.148 41.5581C110.148 31.8111 102.299 23.9186 92.595 23.9186Z" fill="#ECA915"/>
<path d="M110.062 18.1395C110.062 8.39247 102.212 0.500004 92.5086 0.500004C92.4224 0.500004 92.3792 0.500004 92.293 0.500004V13.1366C94.9669 13.3522 97.0371 15.5518 97.0371 18.2688C97.0371 18.3551 97.0371 18.4414 97.0371 18.5276H110.062C110.062 18.3982 110.062 18.2688 110.062 18.1395Z" fill="#00A397"/>
<path d="M86.773 18.2688C86.773 15.4224 89.0588 13.1366 91.9052 13.1366C92.0346 13.1366 92.164 13.1366 92.2934 13.1366L92.2502 0.5C92.1209 0.5 91.9915 0.5 91.819 0.5C82.0289 0.5 74.0933 8.47873 74.0933 18.2688C74.0933 18.312 74.0933 18.312 74.0933 18.3551L86.7298 18.3982C86.773 18.3551 86.773 18.312 86.773 18.2688Z" fill="#ECA915"/>
<path d="M92.3361 23.4011L92.293 36.5552C92.3792 36.5552 92.4224 36.5552 92.5086 36.5552C102.169 36.5552 110.019 28.6628 110.019 18.9158C110.019 18.7864 110.019 18.657 110.019 18.5276H97.0371C96.9077 21.1153 94.8807 23.1855 92.3361 23.4011Z" fill="#E1771C"/>
<path d="M92.3368 23.4011C92.2075 23.4011 92.0781 23.4011 91.9056 23.4011C89.1454 23.4011 86.8596 21.2016 86.7733 18.4413L74.1367 18.4845C74.1367 18.4413 74.1367 18.3982 74.1367 18.3551C74.1367 18.4413 74.1367 18.5276 74.1367 18.5707C74.1367 28.4902 82.0723 36.5552 91.9487 36.5983C92.0781 36.5983 92.2075 36.5983 92.38 36.5983V23.4011H92.3368Z" fill="#EA931D"/>
<path d="M86.7733 18.4845C86.7733 18.4413 86.7733 18.3982 86.7733 18.3982L74.1367 18.3551C74.1367 18.3982 74.1367 18.4413 74.1367 18.4845H86.7733Z" fill="#EA931D"/>
</g>
<defs>
<clipPath id="clip0_290_438">
<rect width="225" height="59.517" fill="white" transform="translate(0 0.5)"/>
</clipPath>
</defs>
</svg>
