<svg width="56" height="56" viewBox="0 0 56 56" fill="none" xmlns="http://www.w3.org/2000/svg">
<rect width="56" height="56" rx="28" fill="#00807F" fill-opacity="0.3"/>
<path d="M39 32V28.92C39 24.186 35.817 20.002 31.22 18.627C30.491 17.641 29.319 17 28 17C26.681 17 25.509 17.641 24.78 18.627C20.182 20.002 17 24.186 17 28.92V32C16.448 32 16 32.447 16 33C16 33.553 16.448 34 17 34H17.475C18.477 35.348 21.768 39 28 39C34.232 39 37.522 35.348 38.525 34H39C39.553 34 40 33.553 40 33C40 32.447 39.553 32 39 32ZM37 28.92V32H32V21.069C35.011 22.526 37 25.553 37 28.92ZM28 19C29.103 19 30 19.895 30 20.994V32H26V20.994C26 19.894 26.897 19 28 19ZM24 21.069V32H19V28.92C19 25.553 20.988 22.526 24 21.069ZM20.141 34H35.845C34.456 35.312 31.909 37 28 37C24.061 37 21.521 35.313 20.141 34Z" fill="#00807F"/>
</svg>
