<svg width="56" height="56" viewBox="0 0 56 56" fill="none" xmlns="http://www.w3.org/2000/svg">
<rect width="56" height="56" rx="28" fill="#00807F" fill-opacity="0.3"/>
<g clip-path="url(#clip0_198_221)">
<path d="M25.91 29H28V31H25.09L24.09 30H18V31C18 31.55 18.45 32 19 32H28V34H19C17.35 34 16 32.65 16 31V28H18V16H38V23H36V18H20V28H24.91L25.91 29ZM40 28V40H30V28C30 26.35 31.35 25 33 25H37C38.65 25 40 26.35 40 28ZM38 28C38 27.45 37.55 27 37 27H33C32.45 27 32 27.45 32 28V38H38V28Z" fill="#00807F"/>
</g>
<defs>
<clipPath id="clip0_198_221">
<rect width="24" height="24" fill="white" transform="translate(16 16)"/>
</clipPath>
</defs>
</svg>
